<?xml version="1.0" encoding="utf-8"?>
<!-- Generator: Adobe Illustrator 22.0.0, SVG Export Plug-In . SVG Version: 6.00 Build 0)  -->
<svg version="1.1" id="Layer_1" xmlns="http://www.w3.org/2000/svg" xmlns:xlink="http://www.w3.org/1999/xlink" x="0px" y="0px"
	 viewBox="0 0 200 200" style="enable-background:new 0 0 200 200;" xml:space="preserve">
<style type="text/css">
	.st0{fill:#FE5257;}
	.st1{fill:#FFFFFF;}
</style>
<path class="st0" d="M100,200L100,200C44.8,200,0,155.2,0,100l0,0C0,44.8,44.8,0,100,0l0,0c55.2,0,100,44.8,100,100l0,0
	C200,155.2,155.2,200,100,200z"/>
<g id="Icon">
	<g>
		<rect x="95.3" y="64.5" class="st1" width="10" height="78.8"/>
	</g>
	<g>
		<path class="st1" d="M42.5,143.1c-2.8,0-5-2.2-5-5V55.3c0-1.6,0.6-3.1,1.8-4.2c2.1-2.1,5.1-2,6.8-2h0.4h34.2
			c9.8,0,20,5.4,24.7,13.2c1.4,2.4,0.7,5.4-1.7,6.9c-2.4,1.4-5.4,0.7-6.9-1.7c-2.9-4.8-9.8-8.4-16.1-8.4H47.5v79.1
			C47.5,140.9,45.3,143.1,42.5,143.1z"/>
	</g>
	<g>
		<path class="st1" d="M158.1,143.1c-2.8,0-5-2.2-5-5V59h-30.5c-6.7,0-14.7,3.8-17.4,8.4c-1.4,2.4-4.5,3.1-6.9,1.7s-3.1-4.5-1.7-6.9
			c5.1-8.6,17.2-13.3,26-13.3h34.5c0.9,0,2.8,0,4.4,1.6c1.6,1.6,1.6,3.5,1.6,4.4v0.3V138C163.1,140.9,160.9,143.1,158.1,143.1z"/>
	</g>
	<g>
		<path class="st1" d="M101.6,154.6c-1.5,0-3-0.7-4-2c-3.1-4.1-9.6-6.9-15.9-6.9H45.1c-2.8,0-5-2.2-5-5s2.2-5,5-5h36.6
			c9.4,0,18.9,4.4,23.9,10.9c1.7,2.2,1.2,5.3-1,7C103.8,154.3,102.7,154.6,101.6,154.6z"/>
	</g>
	<g>
		<path class="st1" d="M101.6,154.6c-1.1,0-2.1-0.3-3-1c-2.2-1.7-2.6-4.8-1-7c4.9-6.5,14.5-10.9,23.9-10.9h36.6c2.8,0,5,2.2,5,5
			s-2.2,5-5,5h-36.6c-6.3,0-12.8,2.8-15.9,6.9C104.6,153.9,103.1,154.6,101.6,154.6z"/>
	</g>
</g>
</svg>
