<?xml version="1.0" encoding="utf-8"?>
<!-- Generator: Adobe Illustrator 22.0.0, SVG Export Plug-In . SVG Version: 6.00 Build 0)  -->
<svg version="1.1" id="Layer_1" xmlns="http://www.w3.org/2000/svg" xmlns:xlink="http://www.w3.org/1999/xlink" x="0px" y="0px"
	 viewBox="0 0 1000 200" style="enable-background:new 0 0 1000 200;" xml:space="preserve">
<style type="text/css">
	.st0{fill:#FE5257;}
	.st1{fill:#222222;}
</style>
<g>
	<path class="st0" d="M162.8,6c3.9,0,5.9,2,5.9,5.9v135.3c0,3.4-2,5.9-5.9,5.9h-23.9c-3.9,0-5.9-2-5.9-5.9v-2
		c-6.8,6.8-16.6,10.7-29.3,10.7c-28.3,0-50.8-23.9-50.8-55.2s22.5-55.2,50.8-55.2c12.7,0,22.5,3.9,29.3,10.7v-44
		c0-3.4,2-5.9,5.9-5.9L162.8,6L162.8,6z M133.5,100.3c0-13.7-9.3-22.5-22.5-22.5s-22.5,8.8-22.5,22.5s9.3,22.5,22.5,22.5
		S133.5,114,133.5,100.3z"/>
	<path class="st0" d="M241,45.1c31.3,0,53.7,23.9,53.7,55.2c0,2.9,0,5.4-0.5,7.8c-0.5,3.4-2.9,5.4-6.4,5.4H260h-39.6
		c3.9,11.7,13.2,15.6,22.5,15.6c4.9,0,9.3-1.5,12.7-3.9c2.4-1.5,4.4-2.9,7.3-2.9h21.5c4.4,0,6.4,2.9,4.4,6.8
		c-8.8,18.6-26.4,26.9-47.4,26.9c-34.7,0-57.2-23.9-57.2-55.2S207.2,45.1,241,45.1L241,45.1z M260.5,89.1
		c-2.9-10.7-10.7-14.7-19.5-14.7c-10.3,0-18.1,4.9-21,14.7H260.5z"/>
	<path class="st0" d="M409,111c3.9,0,6.4,2.4,4.9,6.4c-6.4,22.5-27.4,38.6-52.8,38.6c-32.2,0-56.7-23.9-56.7-55.2
		s24.4-55.7,56.7-55.7c25.4,0,46.9,15.6,52.8,38.6c1,3.9-1,6.4-4.9,6.4h-25.9c-2.9,0-4.9-1.5-6.8-3.9c-3.4-4.4-8.8-6.8-15.1-6.8
		c-12.2,0-21,8.8-21,21.5s9.3,21.5,21,21.5c6.4,0,12.2-2.4,15.1-6.8c2-2.4,3.9-3.9,6.8-3.9L409,111L409,111z"/>
	<path class="st0" d="M527.8,146.2c2.4,3.9,1,6.8-3.9,6.8h-26.4c-2.9,0-5.4-1-6.8-3.9l-26.4-40.6v38.6c0,3.4-2,5.9-5.9,5.9h-23.9
		c-3.9,0-5.9-2-5.9-5.9V11.9c0-3.4,2-5.9,5.9-5.9h23.9c3.9,0,5.9,2,5.9,5.9V92l24.4-40.1c1.5-2.9,3.9-3.9,6.8-3.9h26.9
		c4.9,0,6.4,2.9,3.9,6.8l-29.8,45.4L527.8,146.2L527.8,146.2z"/>
	<path class="st1" d="M607.4,45.1c28.3,0,50.8,23.9,50.8,55.2s-22.5,55.2-50.8,55.2c-12.7,0-22.5-3.9-29.3-10.7v44
		c0,3.4-2,5.9-5.9,5.9h-23.9c-3.9,0-5.9-2-5.9-5.9V53.9c0-3.4,2-5.9,5.9-5.9h23.9c3.9,0,5.9,2,5.9,5.9v2
		C584.9,49,594.2,45.1,607.4,45.1L607.4,45.1z M622.6,100.3c0-13.7-9.3-22.5-22.5-22.5s-22.5,8.8-22.5,22.5s9.3,22.5,22.5,22.5
		C613.8,122.8,622.6,114,622.6,100.3z"/>
	<path class="st1" d="M716.9,45.1c23.5,0,45.4,13.2,45.4,41.5v60.6c0,3.4-2,5.9-5.9,5.9H734c-3.9,0-5.9-2-5.9-5.9v-1.5
		c-5.9,5.9-13.2,10.3-25.9,10.3c-19.5,0-35.7-10.7-35.7-32.7s16.6-32.7,36.2-32.7c12.2,0,19.5,3.4,25.4,6.8v-9.3
		c0-7.8-3.4-11.7-11.2-11.7c-5.4,0-8.3,2-9.8,4.4s-2.4,4.4-6.4,4.4h-23c-3.9,0-6.4-2-5.9-5.9C674.8,56.3,695.4,45.1,716.9,45.1
		L716.9,45.1z M728.1,123.3c0-6.4-5.4-9.8-13.7-9.8s-12.7,3.9-12.7,9.8c0,5.9,4.4,9.8,12.7,9.8S728.1,128.6,728.1,123.3z"/>
	<path class="st1" d="M839.5,53.9v22c0,3.4-2,5.9-5.9,5.9h-9.8v66c0,3.4-2,5.9-5.9,5.9H794c-3.9,0-5.9-2-5.9-5.9V81.2h-9.8
		c-3.9,0-5.9-2-5.9-5.9v-22c0-3.4,2-5.9,5.9-5.9h9.8V19.7c0-3.4,2-5.9,5.9-5.9h24c3.9,0,5.9,2,5.9,5.9v27.9h9.8
		C837.5,48,839.5,50,839.5,53.9z"/>
	<path class="st1" d="M914.3,45.1c19.5,0,34.2,15.1,34.2,41v61.1c0,3.4-2,5.9-5.9,5.9h-23.9c-3.9,0-5.9-2-5.9-5.9V90
		c0-7.8-4.9-12.2-11.7-12.2c-8.8,0-13.2,5.4-13.2,14.7v54.7c0,3.4-2,5.9-5.9,5.9h-23.9c-3.9,0-5.9-2-5.9-5.9V11.9
		c0-3.4,2-5.9,5.9-5.9H882c3.9,0,5.9,2,5.9,5.9v45C893.2,50,902,45.1,914.3,45.1L914.3,45.1z"/>
</g>
</svg>
