<?xml version="1.0" encoding="utf-8"?>
<!-- Generator: Adobe Illustrator 22.0.0, SVG Export Plug-In . SVG Version: 6.00 Build 0)  -->
<svg version="1.1" id="Layer_1" xmlns="http://www.w3.org/2000/svg" xmlns:xlink="http://www.w3.org/1999/xlink" x="0px" y="0px"
	 viewBox="0 0 200 200" style="enable-background:new 0 0 200 200;" xml:space="preserve">
<style type="text/css">
	.st0{fill:#455B65;}
</style>
<g>
	<g>
		<g>
			<path class="st0" d="M182.8,17.1C175,9.2,165.5,3.8,156.2,1.8c-10.3-2.2-19.3,0-25.4,6.1l-24.5,24.5L22,116.6
				c-0.5,0.5-0.9,1.1-1.2,1.8c-0.1,0.2-0.1,0.3-0.2,0.5c-0.1,0.2-0.2,0.3-0.2,0.5L1.2,191.1c-0.6,2.1,0,4.4,1.6,6
				c1.2,1.2,2.8,1.8,4.4,1.8c0.5,0,1.1-0.1,1.6-0.2l71.7-19.2c0.2,0,0.3-0.1,0.5-0.2c0.2-0.1,0.3-0.1,0.5-0.2
				c0.7-0.3,1.3-0.7,1.8-1.2l84.3-84.3L192,69.2C204.1,57.2,200,34.3,182.8,17.1z M174,25.9c9.2,9.2,13.8,20.8,12.2,28.7l-40.9-40.9
				C153.2,12.1,164.8,16.7,174,25.9z M125.1,31.1l43.7,43.7l-5.6,5.6l-43.7-43.7L125.1,31.1z M19.2,171.8L29.6,133l18.6,18.6
				l18.6,18.6l-38.8,10.4L19.2,171.8z M110.6,45.6l8,8L43.1,129l-8-8L110.6,45.6z M57,142.9l-9.5-9.5L123,57.9l19,19l-75.5,75.5
				L57,142.9z M78.9,164.7l-8-8l75.5-75.5l8,8L78.9,164.7z M173.2,70.4l-43.7-43.7l5.6-5.6l43.7,43.7L173.2,70.4z"/>
		</g>
	</g>
</g>
</svg>
