<?xml version="1.0" encoding="utf-8"?>
<!-- Generator: Adobe Illustrator 22.0.0, SVG Export Plug-In . SVG Version: 6.00 Build 0)  -->
<svg version="1.1" id="Layer_1" xmlns="http://www.w3.org/2000/svg" xmlns:xlink="http://www.w3.org/1999/xlink" x="0px" y="0px"
	 viewBox="0 0 200 200" style="enable-background:new 0 0 200 200;" xml:space="preserve">
<style type="text/css">
	.st0{fill:#21CD99;}
</style>
<path class="st0" d="M95.8,0H10.7c-4,0-7.1,3.1-7.1,6.9v178.9v7c0,4,3.1,7.1,7.1,7.1h7h78.1c58.8,0,100.5-40.8,100.5-100.5
	C196.3,39.7,154.6,0,95.8,0z M61.9,48.5h26.7L54.9,92.7V55.5C54.9,51.7,58.1,48.5,61.9,48.5z M94.6,151.4H61.9c-3.8,0-7-3.1-7-7
	v-15.2l58.6-76.8c17.9,7.6,29,25.8,29,47.1C142.6,127.4,123.2,151.4,94.6,151.4z"/>
</svg>
