<?xml version="1.0" encoding="utf-8"?>
<!-- Generator: Adobe Illustrator 22.0.0, SVG Export Plug-In . SVG Version: 6.00 Build 0)  -->
<svg version="1.1" id="Layer_1" xmlns="http://www.w3.org/2000/svg" xmlns:xlink="http://www.w3.org/1999/xlink" x="0px" y="0px"
	 viewBox="0 0 200 200" style="enable-background:new 0 0 200 200;" xml:space="preserve">
<g id="Icon">
	<g>
		<rect x="92" y="43.3" width="16" height="119.9"/>
	</g>
	<g>
		<path d="M12.1,163.2c-4.4,0-8-3.6-8-8v-126c0-2.5,1-4.9,2.8-6.7c3.3-3.3,7.9-3.2,10.7-3.2l0.5,0h52c15.1,0,30.6,8.4,37.8,20.3
			c2.3,3.8,1.1,8.7-2.7,11c-3.8,2.3-8.7,1.1-11-2.7C89.8,40.7,79.5,35.3,70,35.3H20v119.9C20,159.6,16.5,163.2,12.1,163.2z"/>
	</g>
	<g>
		<path d="M187.9,163.2c-4.4,0-8-3.6-8-8V35.3h-46c-9.9,0-22.1,5.9-26.1,12.6c-2.3,3.8-7.2,5-11,2.8c-3.8-2.3-5-7.2-2.8-11
			c7.9-13.2,26.4-20.3,39.8-20.3l52.5,0c1.3,0,4.4-0.1,7,2.5c2.6,2.6,2.5,5.7,2.5,7l0,0.4v126C195.9,159.6,192.4,163.2,187.9,163.2z
			"/>
	</g>
	<g>
		<path d="M102,180.7c-2.4,0-4.8-1.1-6.4-3.2c-4.5-6-14.6-10.3-23.9-10.3H16.1c-4.4,0-8-3.6-8-8s3.6-8,8-8h55.7
			c14.3,0,29.1,6.7,36.6,16.7c2.7,3.5,2,8.5-1.5,11.2C105.4,180.2,103.7,180.7,102,180.7z"/>
	</g>
	<g>
		<path d="M102,180.7c-1.7,0-3.4-0.5-4.8-1.6c-3.5-2.7-4.2-7.7-1.5-11.2c7.6-10,22.3-16.7,36.6-16.7h55.7c4.4,0,8,3.6,8,8
			s-3.6,8-8,8h-55.7c-9.3,0-19.3,4.3-23.9,10.3C106.8,179.6,104.4,180.7,102,180.7z"/>
	</g>
</g>
</svg>
