<?xml version="1.0" encoding="utf-8"?>
<!-- Generator: Adobe Illustrator 22.0.0, SVG Export Plug-In . SVG Version: 6.00 Build 0)  -->
<svg version="1.1" id="Layer_1" xmlns="http://www.w3.org/2000/svg" xmlns:xlink="http://www.w3.org/1999/xlink" x="0px" y="0px"
	 viewBox="0 0 200 200" style="enable-background:new 0 0 200 200;" xml:space="preserve">
<style type="text/css">
	.st0{fill:#040D14;}
</style>
<g>
	<g>
		<g>
			<path class="st0" d="M101.5,81.1c-14.6,0-27.1,12.4-27.1,27.1s12.4,27.1,27.1,27.1s27.1-12.4,27.1-27.1
				C128.6,92.8,116.1,81.1,101.5,81.1z M173.9,54.1H152c-2.9,0-5.9-2.2-7.3-5.1l-5.9-16.8c-0.7-2.9-4.4-5.1-7.3-5.1H70.1
				c-2.9,0-5.9,2.2-7.3,5.1l-5.9,16.8c-0.7,2.9-4.4,5.1-7.3,5.1H27.6c-10.2,0-18.3,8-18.3,18.3v81.2c0,10.2,8,18.3,18.3,18.3h144.1
				c10.2,0,18.3-8,18.3-18.3V71.6C191.5,62.1,183.4,54.1,173.9,54.1z M101.5,152.8c-24.9,0-45.3-20.5-45.3-45.3
				c0-24.9,20.5-45.3,45.3-45.3c24.9,0,45.3,20.5,45.3,45.3C146.8,133,126.4,152.8,101.5,152.8z M167.3,84.8c-3.7,0-6.6-2.9-6.6-6.6
				c0-3.7,2.9-6.6,6.6-6.6c3.7,0,6.6,2.9,6.6,6.6C173.9,81.8,171,84.8,167.3,84.8z"/>
		</g>
	</g>
</g>
</svg>
