<?xml version="1.0" encoding="utf-8"?>
<!-- Generator: Adobe Illustrator 22.0.0, SVG Export Plug-In . SVG Version: 6.00 Build 0)  -->
<svg version="1.1" id="Layer_1" xmlns="http://www.w3.org/2000/svg" xmlns:xlink="http://www.w3.org/1999/xlink" x="0px" y="0px"
	 viewBox="0 0 200 200" style="enable-background:new 0 0 200 200;" xml:space="preserve">
<style type="text/css">
	.st0{fill:#6D6F70;}
</style>
<g id="Icon_5_">
	<g>
		<path class="st0" d="M165.3,181c-3.9,0-7.9-1.5-10.9-4.5L22.8,45.6c-6-6-6.1-15.8-0.1-21.8c6-6,15.8-6.1,21.8-0.1l131.6,130.9
			c6,6,6.1,15.8,0.1,21.8C173.2,179.5,169.2,181,165.3,181z"/>
	</g>
	<g>
		<path class="st0" d="M33.6,181c-4,0-7.9-1.5-10.9-4.6c-6-6-6-15.8,0.1-21.8L154.4,23.7c6-6,15.8-6,21.8,0.1c6,6,6,15.8-0.1,21.8
			L44.5,176.5C41.5,179.5,37.6,181,33.6,181z"/>
	</g>
</g>
</svg>
