<?xml version="1.0" encoding="utf-8"?>
<!-- Generator: Adobe Illustrator 22.0.0, SVG Export Plug-In . SVG Version: 6.00 Build 0)  -->
<svg version="1.1" id="Layer_1" xmlns="http://www.w3.org/2000/svg" xmlns:xlink="http://www.w3.org/1999/xlink" x="0px" y="0px"
	 viewBox="0 0 200 200" style="enable-background:new 0 0 200 200;" xml:space="preserve">
<style type="text/css">
	.st0{fill:#2A3135;}
</style>
<g id="Icon_64_">
	<g>
		<path class="st0" d="M169.6,63.2H27.4c-4.6,0-8.4-3.7-8.4-8.4s3.7-8.4,8.4-8.4h142.3c4.6,0,8.4,3.7,8.4,8.4S174.3,63.2,169.6,63.2
			z"/>
	</g>
	<g>
		<path class="st0" d="M111,108.3C111,108.3,111,108.3,111,108.3l-81.2-0.4c-4.6,0-8.3-3.8-8.3-8.4c0-4.6,3.8-8.3,8.4-8.3
			c0,0,0,0,0,0l81.2,0.4c4.6,0,8.3,3.8,8.3,8.4C119.4,104.6,115.6,108.3,111,108.3z"/>
	</g>
	<g>
		<path class="st0" d="M161.3,151H27.4c-4.6,0-8.4-3.7-8.4-8.4c0-4.6,3.7-8.4,8.4-8.4h133.9c4.6,0,8.4,3.7,8.4,8.4
			C169.6,147.3,165.9,151,161.3,151z"/>
	</g>
</g>
</svg>
