<?xml version="1.0" encoding="utf-8"?>
<!-- Generator: Adobe Illustrator 22.0.0, SVG Export Plug-In . SVG Version: 6.00 Build 0)  -->
<svg version="1.1" id="Layer_1" xmlns="http://www.w3.org/2000/svg" xmlns:xlink="http://www.w3.org/1999/xlink" x="0px" y="0px"
	 viewBox="0 0 200 200" style="enable-background:new 0 0 200 200;" xml:space="preserve">
<g id="Icon_19_">
	<g>
		<path d="M13.9,196.3c-2.5,0-5-1-6.8-2.8c-2.2-2.2-3.2-5.4-2.7-8.5l10.3-58.4c0.3-1.9,1.3-3.7,2.7-5.1L130.8,8.1
			c5.5-5.5,15-5.5,20.5,0l41.2,41.2c5.6,5.6,5.6,14.8,0,20.5L79.1,183.2c-1.4,1.4-3.2,2.3-5.1,2.7l-58.4,10.3
			C15,196.3,14.5,196.3,13.9,196.3z M72.3,176.4L72.3,176.4L72.3,176.4z M33.2,132.9l-7.4,41.9l41.9-7.4l1.3-1.3c0,0,0,0,0,0
			L175.5,59.6L141,25.1L33.2,132.9z"/>
	</g>
	<g>
		<path d="M153.1,105.2c-2.5,0-4.9-0.9-6.8-2.8L98.2,54.3c-3.8-3.8-3.8-9.8,0-13.6c3.8-3.8,9.8-3.8,13.6,0l48.1,48.1
			c3.8,3.8,3.8,9.8,0,13.6C158,104.3,155.6,105.2,153.1,105.2z"/>
	</g>
</g>
</svg>
