<?xml version="1.0" encoding="utf-8"?>
<!-- Generator: Adobe Illustrator 22.0.0, SVG Export Plug-In . SVG Version: 6.00 Build 0)  -->
<svg version="1.1" id="Layer_1" xmlns="http://www.w3.org/2000/svg" xmlns:xlink="http://www.w3.org/1999/xlink" x="0px" y="0px"
	 viewBox="0 0 200 200" style="enable-background:new 0 0 200 200;" xml:space="preserve">
<g id="Icon_59_">
	<g>
		<path d="M99.5,131.9c-17.3,0-31.3-14-31.3-31.3s14-31.3,31.3-31.3s31.3,14,31.3,31.3S116.7,131.9,99.5,131.9z M99.5,85
			c-8.6,0-15.6,7-15.6,15.6c0,8.6,7,15.6,15.6,15.6c8.6,0,15.6-7,15.6-15.6C115.1,92,108.1,85,99.5,85z"/>
	</g>
	<g>
		<path d="M116,191.7H84.7c-7.8,0-12.6-9.3-12.6-14.4v-9.5c-4.2-1.7-8.2-3.8-12.4-6.6l-7.3,5.4c-2.6,1.9-5.8,2.6-8.8,2.1
			c-3.1-0.5-5.8-2.2-7.6-4.8l-18.2-25.5c-1.8-2.6-2.5-5.7-2-8.8c0.5-3.1,2.2-5.8,4.8-7.6l7.6-5.4c-1.5-5.9-2.2-11.9-2.2-17.9
			c0-5.7,0.6-11.3,1.9-16.8L19,75.7c-5.3-3.7-6.6-11.1-2.9-16.4L34,33.7c3.7-5.3,11-6.6,16.3-2.9l8.5,6c4.3-2.9,8.8-5.3,13.4-7.2
			V17.2l1.3-2c1.8-2.8,5.7-7.4,11.3-7.4H116c7,0,10.9,4.2,10.9,11.7v10c4.8,1.9,9.3,4.2,13.6,6.9l8-5.5c2.4-1.8,5.6-2.5,8.7-1.9
			c3.1,0.5,5.8,2.2,7.6,4.8l18.2,25.5c1.8,2.5,2.5,5.7,2,8.7c-0.5,3.1-2.2,5.8-4.8,7.6l-7.6,5.4c1.4,5.8,2.1,11.7,2.1,17.6
			c0,5.9-0.7,11.8-2.1,17.5l6.4,4.5c5.3,3.7,6.6,11,2.9,16.3l-18,25.7c-1.8,2.6-4.5,4.3-7.6,4.8c-3.1,0.5-6.2-0.2-8.8-2l-6.9-4.7
			c-4.2,2.7-8.8,5.1-13.6,7v9.4C126.9,184.4,123.1,191.7,116,191.7z M87.8,176h23.5v-19.6l5.6-1.7c6.9-2.1,13.4-5.4,18.9-9.6
			l4.5-3.5l13,8.9l13.6-19.3l-12.5-8.8l1.8-5.5c2-6,3-12.1,3-18.3c0-6.2-1-12.4-3-18.3l-1.8-5.5l13.6-9.7L154.1,46l-14,9.7l-4.5-3.5
			c-5.5-4.2-12-7.5-18.8-9.6l-5.6-1.7V23.5H87.8v17.4l-5.5,1.7c-6.6,2-12.7,5.3-18.6,10L59,56.2L44.5,45.9L31.2,65.1l14.9,10.4
			L44.3,81c-1.8,5.7-2.7,11.7-2.7,17.7c0,6.3,1,12.5,3.1,18.6l1.8,5.5l-13.7,9.8l13.6,19.1l13.3-9.8l4.7,3.6
			c6.2,4.7,11.6,7.6,17.8,9.4l5.6,1.7V176z M156.2,152.7L156.2,152.7C156.3,152.7,156.2,152.7,156.2,152.7z M29.6,134.8L29.6,134.8
			C29.6,134.8,29.6,134.8,29.6,134.8z M170,133.5C170,133.5,170,133.5,170,133.5L170,133.5z M28.9,68.3L28.9,68.3
			C28.9,68.3,28.9,68.3,28.9,68.3z M157.4,43.8l-0.1,0.1C157.3,43.8,157.3,43.8,157.4,43.8z"/>
	</g>
</g>
</svg>
