<?xml version="1.0" encoding="utf-8"?>
<!-- Generator: Adobe Illustrator 22.0.0, SVG Export Plug-In . SVG Version: 6.00 Build 0)  -->
<svg version="1.1" id="Layer_1" xmlns="http://www.w3.org/2000/svg" xmlns:xlink="http://www.w3.org/1999/xlink" x="0px" y="0px"
	 viewBox="0 0 200 200" style="enable-background:new 0 0 200 200;" xml:space="preserve">
<g id="Icon_8_">
	<g>
		<path d="M150.9,194.6H13.3c-4.5,0-8.1-3.6-8.1-8.1V48.9c0-4.5,3.6-8.1,8.1-8.1h56.7c4.5,0,8.1,3.6,8.1,8.1S74.4,57,69.9,57H21.4
			v121.4h121.4v-56.7c0-4.5,3.6-8.1,8.1-8.1s8.1,3.6,8.1,8.1v64.8C159,191,155.3,194.6,150.9,194.6z"/>
	</g>
	<g>
		<g>
			<path d="M66.6,141.4c-2.1,0-4.2-0.8-5.7-2.4c-1.8-1.8-2.7-4.4-2.3-7L65,91.5c0.3-1.7,1.1-3.3,2.3-4.5l79.3-79.6
				c3.2-3.2,8.3-3.2,11.4,0l34.3,34.1c1.5,1.5,2.4,3.6,2.4,5.7s-0.8,4.2-2.4,5.7L113,132.6c-1.2,1.2-2.8,2-4.5,2.3l-40.6,6.5
				C67.5,141.4,67.1,141.4,66.6,141.4z M107.2,126.8L107.2,126.8L107.2,126.8z M80.6,96.6l-4.2,27l27-4.3l71.8-72l-22.8-22.7
				L80.6,96.6z"/>
		</g>
		<g>
			<path d="M163.3,76.3c-2.1,0-4.1-0.8-5.7-2.4l-31.5-31.5c-3.2-3.2-3.2-8.3,0-11.4c3.2-3.2,8.3-3.2,11.4,0L169,62.4
				c3.2,3.2,3.2,8.3,0,11.4C167.4,75.5,165.3,76.3,163.3,76.3z"/>
		</g>
	</g>
</g>
</svg>
