<?xml version="1.0" encoding="utf-8"?>
<!-- Generator: Adobe Illustrator 22.0.0, SVG Export Plug-In . SVG Version: 6.00 Build 0)  -->
<svg version="1.1" id="Layer_1" xmlns="http://www.w3.org/2000/svg" xmlns:xlink="http://www.w3.org/1999/xlink" x="0px" y="0px"
	 viewBox="0 0 200 200" style="enable-background:new 0 0 200 200;" xml:space="preserve">
<style type="text/css">
	.st0{stroke:#50BC93;stroke-width:4;stroke-linecap:round;stroke-linejoin:round;stroke-miterlimit:10;}
</style>
<g id="Icon_46_">
	<g>
		<path d="M99.2,196.5c-48.4,0-87.8-39.4-87.8-87.8S50.9,21,99.2,21S187,60.4,187,108.7S147.6,196.5,99.2,196.5z M99.2,37.4
			c-39.3,0-71.3,32-71.3,71.3c0,39.3,32,71.3,71.3,71.3c39.3,0,71.3-32,71.3-71.3C170.6,69.4,138.6,37.4,99.2,37.4z"/>
	</g>
	<g>
		<path d="M100.3,152.7c-4.6,0-8.4-3.7-8.4-8.4V75.2c0-4.6,3.7-8.4,8.4-8.4s8.4,3.7,8.4,8.4v69.1C108.7,149,104.9,152.7,100.3,152.7
			z"/>
	</g>
	<g>
		<path class="st0" d="M122.6,108.4"/>
	</g>
	<g>
		<path d="M133.8,119.2h-67c-4.6,0-8.4-3.7-8.4-8.4s3.7-8.4,8.4-8.4h67c4.6,0,8.4,3.7,8.4,8.4S138.4,119.2,133.8,119.2z"/>
	</g>
</g>
</svg>
