<?xml version="1.0" encoding="utf-8"?>
<!-- Generator: Adobe Illustrator 22.0.0, SVG Export Plug-In . SVG Version: 6.00 Build 0)  -->
<svg version="1.1" id="Layer_1" xmlns="http://www.w3.org/2000/svg" xmlns:xlink="http://www.w3.org/1999/xlink" x="0px" y="0px"
	 viewBox="0 0 200 200" style="enable-background:new 0 0 200 200;" xml:space="preserve">
<g id="Icon_49_">
	<g>
		<path d="M4.3,181.4V18.5c0-5,4.1-9,9-9h45.2c5,0,9,4.1,9,9s-4.1,9-9,9H22.3v144.8h36.2c5,0,9,4.1,9,9c0,5-4.1,9-9,9H13.3
			C8.4,190.4,4.3,186.4,4.3,181.4z"/>
	</g>
	<g>
		<g>
			<path d="M51.8,99.8c0-5,4-9,9-9l126.7-0.4c3.6,0,6.9,2.1,8.3,5.5c1.4,3.3,0.7,7.2-1.8,9.8l-59,61.6c-3.5,3.6-9.2,3.7-12.8,0.3
				c-3.6-3.5-3.7-9.2-0.3-12.8l44.4-46.3l-105.4,0.3C55.9,108.9,51.8,104.9,51.8,99.8C51.8,99.9,51.8,99.9,51.8,99.8z"/>
		</g>
		<g>
			<path d="M119.6,38.9c0-2.4,0.9-4.7,2.7-6.5c3.6-3.5,9.3-3.4,12.8,0.2L194,93.1c3.5,3.6,3.4,9.3-0.2,12.8s-9.3,3.4-12.8-0.2
				l-58.8-60.5C120.4,43.4,119.6,41.2,119.6,38.9z"/>
		</g>
	</g>
</g>
</svg>
