<?xml version="1.0" encoding="utf-8"?>
<!-- Generator: Adobe Illustrator 22.0.0, SVG Export Plug-In . SVG Version: 6.00 Build 0)  -->
<svg version="1.1" id="Layer_1" xmlns="http://www.w3.org/2000/svg" xmlns:xlink="http://www.w3.org/1999/xlink" x="0px" y="0px"
	 viewBox="0 0 200 200" style="enable-background:new 0 0 200 200;" xml:space="preserve">
<g id="Icon_49_">
	<g>
		<path d="M181.9,196H19c-5,0-9-4.1-9-9v-45.2c0-5,4.1-9,9-9s9,4.1,9,9v36.2h144.8v-36.2c0-5,4.1-9,9-9c5,0,9,4.1,9,9V187
			C190.9,191.9,186.9,196,181.9,196z"/>
	</g>
	<g>
		<g>
			<path d="M100.3,148.5c-5,0-9-4-9-9L90.9,12.8c0-3.6,2.1-6.9,5.5-8.3c3.3-1.4,7.2-0.7,9.8,1.8l61.6,59c3.6,3.5,3.7,9.2,0.3,12.8
				c-3.5,3.6-9.2,3.7-12.8,0.3L109,34l0.3,105.4C109.4,144.4,105.4,148.5,100.3,148.5C100.4,148.5,100.4,148.5,100.3,148.5z"/>
		</g>
		<g>
			<path d="M39.4,80.7c-2.4,0-4.7-0.9-6.5-2.7c-3.5-3.6-3.4-9.3,0.2-12.8L93.6,6.3c3.6-3.5,9.3-3.4,12.8,0.2
				c3.5,3.6,3.4,9.3-0.2,12.8L45.7,78.1C43.9,79.9,41.7,80.7,39.4,80.7z"/>
		</g>
	</g>
</g>
</svg>
