<?xml version="1.0" encoding="utf-8"?>
<!-- Generator: Adobe Illustrator 22.0.0, SVG Export Plug-In . SVG Version: 6.00 Build 0)  -->
<svg version="1.1" id="Layer_1" xmlns="http://www.w3.org/2000/svg" xmlns:xlink="http://www.w3.org/1999/xlink" x="0px" y="0px"
	 viewBox="0 0 200 200" style="enable-background:new 0 0 200 200;" xml:space="preserve">
<g id="Icon_58_">
	<g>
		<path d="M56.5,127.7c-0.9,0-2.2-0.2-3.6-1C37.1,124.1,27,110.9,27,92.4c0-19.2,16.5-34.8,36.7-34.8c2.1,0,4.2,0.2,6.2,0.5
			c3-19.3,18.9-34.1,38.2-34.1c21.3,0,38.6,18.2,38.6,40.6c0,0.9,0,1.8-0.1,2.7c7.7,1.5,14.4,5.8,18.8,12.3
			c4.2,5.5,6.6,12.3,6.6,19.2c0,14.5-11.3,26.2-26.6,28c-1,0.6-2.1,0.8-3,0.8L56.5,127.7z M58.8,114.6h80.9c0.7-0.3,1.3-0.5,1.6-0.5
			l0.8-0.1c8.3-0.4,16.6-5.7,16.6-15.1c0-4.1-1.4-8.1-3.9-11.3l-0.3-0.5c-2.9-4.5-7.9-7.1-13.4-7.1c-0.6,0-1.1,0-1.5,0l-9.2,0.8
			l2.3-9c0.6-2.3,0.9-4.8,0.9-7.2c0-15.1-11.4-27.4-25.5-27.4c-14,0-25.5,12.3-25.5,27.4c0,0.6,0,1.2,0,1.7l0.6,10.6l-9.8-4.1
			c-3.1-1.3-6.4-2-9.8-2c-13,0-23.5,9.7-23.5,21.6c0,4.7,1.2,20.1,16.3,21.5l1,0.1l0.9,0.4C58.5,114.4,58.7,114.5,58.8,114.6z"/>
	</g>
	<g>
		<path d="M113,175.5c-1.3,0-2.7-0.4-3.9-1.3c-2.9-2.2-3.6-6.3-1.4-9.2l20.3-27.7c2.2-2.9,6.3-3.6,9.2-1.4c2.9,2.2,3.6,6.3,1.4,9.2
			l-20.3,27.7C117,174.6,115,175.5,113,175.5z"/>
	</g>
	<g>
		<path d="M79.2,175.5c-1.4,0-2.7-0.4-3.9-1.3c-2.9-2.1-3.6-6.3-1.4-9.2l20.3-27.7c2.2-2.9,6.3-3.6,9.2-1.4c2.9,2.1,3.6,6.3,1.4,9.2
			l-20.3,27.7C83.2,174.6,81.2,175.5,79.2,175.5z"/>
	</g>
	<g>
		<path d="M45.4,175.5c-1.4,0-2.7-0.4-3.9-1.3c-2.9-2.1-3.6-6.3-1.4-9.2l20.3-27.7c2.2-2.9,6.3-3.6,9.2-1.4c2.9,2.1,3.6,6.3,1.4,9.2
			l-20.3,27.7C49.4,174.6,47.4,175.5,45.4,175.5z"/>
	</g>
</g>
</svg>
