<?xml version="1.0" encoding="utf-8"?>
<!-- Generator: Adobe Illustrator 22.0.0, SVG Export Plug-In . SVG Version: 6.00 Build 0)  -->
<svg version="1.1" id="Layer_1" xmlns="http://www.w3.org/2000/svg" xmlns:xlink="http://www.w3.org/1999/xlink" x="0px" y="0px"
	 viewBox="0 0 200 200" style="enable-background:new 0 0 200 200;" xml:space="preserve">
<g id="Icon_6_">
	<g>
		<path d="M184.5,197.5c-2.3,0-4.6-0.9-6.3-2.7L131,146.2c-3.4-3.5-3.3-9.1,0.2-12.5c3.5-3.4,9.1-3.3,12.5,0.2l47.2,48.6
			c3.4,3.5,3.3,9.1-0.2,12.5C188.9,196.7,186.7,197.5,184.5,197.5z"/>
	</g>
	<g>
		<path d="M88.5,163c-44.6,0-80.8-35.9-80.8-80c0-44.1,36.3-80,80.8-80s80.8,35.9,80.8,80C169.4,127.1,133.1,163,88.5,163z
			 M88.5,20.7c-34.8,0-63.2,28-63.2,62.3c0,34.4,28.3,62.3,63.2,62.3s63.2-28,63.2-62.3C151.7,48.6,123.3,20.7,88.5,20.7z"/>
	</g>
</g>
</svg>
