<?xml version="1.0" encoding="utf-8"?>
<!-- Generator: Adobe Illustrator 22.0.0, SVG Export Plug-In . SVG Version: 6.00 Build 0)  -->
<svg version="1.1" id="Layer_1" xmlns="http://www.w3.org/2000/svg" xmlns:xlink="http://www.w3.org/1999/xlink" x="0px" y="0px"
	 viewBox="0 0 200 200" style="enable-background:new 0 0 200 200;" xml:space="preserve">
<g id="Icon_42_">
	<g>
		<path d="M142.1,196.5H62.9c-19.1,0-34.6-17.1-34.6-38.1V48.5c0-6.5,3.2-9.5,5.9-10.9c2.8-1.5,5.9-1.4,8.5-1.5h115.5
			c3.1,0,5.9,0,8.7,1.5c2.7,1.4,5.9,4.4,5.9,10.9v113.9C172.7,181.2,159,196.5,142.1,196.5z M44.4,52.1l0,106.3
			c0,10.7,7.5,22.1,18.6,22.1h79.2c8.7,0,14.5-9.3,14.5-18V52.1H44.4z"/>
	</g>
	<g>
		<path d="M176.7,52.1H24.3c-4.4,0-8-3.6-8-8s3.6-8,8-8h152.4c4.4,0,8,3.6,8,8S181.1,52.1,176.7,52.1z"/>
	</g>
	<g>
		<path d="M124.6,48.1H76.4c-6.6,0-12-5.4-12-12V16c0-6.6,5.4-12,12-12h48.1c6.6,0,12,5.4,12,12v20.1
			C136.6,42.7,131.2,48.1,124.6,48.1z M80.4,32.1h40.1V20H80.4V32.1z"/>
	</g>
	<g>
		<path d="M68.4,160.4c-4.4,0-8-3.6-8-8V80.2c0-4.4,3.6-8,8-8s8,3.6,8,8v72.2C76.4,156.8,72.8,160.4,68.4,160.4z"/>
	</g>
	<g>
		<path d="M100.5,160.4c-4.4,0-8-3.6-8-8V80.2c0-4.4,3.6-8,8-8s8,3.6,8,8v72.2C108.5,156.8,104.9,160.4,100.5,160.4z"/>
	</g>
	<g>
		<path d="M132.6,160.4c-4.4,0-8-3.6-8-8V80.2c0-4.4,3.6-8,8-8s8,3.6,8,8v72.2C140.6,156.8,137,160.4,132.6,160.4z"/>
	</g>
</g>
</svg>
