<?xml version="1.0" encoding="utf-8"?>
<!-- Generator: Adobe Illustrator 22.0.0, SVG Export Plug-In . SVG Version: 6.00 Build 0)  -->
<svg version="1.1" id="Layer_1" xmlns="http://www.w3.org/2000/svg" xmlns:xlink="http://www.w3.org/1999/xlink" x="0px" y="0px"
	 viewBox="0 0 200 200" style="enable-background:new 0 0 200 200;" xml:space="preserve">
<g id="Icon_6_">
	<g>
		<path d="M185,163.3c-4.7,0-8.4-3.8-8.4-8.4c0-22.9-34.8-42.2-75.9-42.2S24.7,132,24.7,154.8c0,4.7-3.8,8.4-8.4,8.4
			s-8.4-3.8-8.4-8.4c0-33.1,40.8-59.1,92.8-59.1s92.8,25.9,92.8,59.1C193.4,159.5,189.7,163.3,185,163.3z"/>
	</g>
	<g>
		<path d="M100.7,112.7c-30.2,0-54.8-24.6-54.8-54.8S70.4,3,100.7,3s54.8,24.6,54.8,54.8S130.9,112.7,100.7,112.7z M100.7,19.9
			c-20.9,0-38,17-38,38s17,38,38,38s38-17,38-38S121.6,19.9,100.7,19.9z"/>
	</g>
	<g>
		<path d="M180.7,197h-160c-7.7,0-13.8-7.9-13.8-14.5v-27.7c0-4.7,3.8-8.4,8.4-8.4s8.4,3.8,8.4,8.4v25.3h151.8v-25.3
			c0-4.7,3.8-8.4,8.4-8.4s8.4,3.8,8.4,8.4v27.7C192.4,191,187.6,197,180.7,197z"/>
	</g>
</g>
</svg>
