<?xml version="1.0" encoding="utf-8"?>
<!-- Generator: Adobe Illustrator 22.0.0, SVG Export Plug-In . SVG Version: 6.00 Build 0)  -->
<svg version="1.1" id="Layer_1" xmlns="http://www.w3.org/2000/svg" xmlns:xlink="http://www.w3.org/1999/xlink" x="0px" y="0px"
	 viewBox="0 0 200 200" style="enable-background:new 0 0 200 200;" xml:space="preserve">
<style type="text/css">
	.st0{fill:#FE5257;}
	.st1{fill:#FE5257;stroke:#FE5257;stroke-width:4;stroke-miterlimit:10;}
</style>
<g id="Icon_36_">
	<g>
		<path class="st0" d="M67.9,150.9H19.7c-7.1,0-12-7.1-12-13.5v-114c0-4,2-6.3,3.2-7.3c3.2-2.7,7-2.1,8.4-1.9c0.2,0,0.4,0.1,0.5,0.1
			l160.6,0c0.1,0,0.3-0.1,0.5-0.1c1.4-0.2,5.2-0.9,8.4,1.9c1.2,1,3.2,3.3,3.2,7.3v113.9c0,6.4-4.9,13.5-12,13.5h-56.2
			c-4.4,0-8-3.6-8-8s3.6-8,8-8h52.2V30.4H23.7v104.4h44.2c4.4,0,8,3.6,8,8S72.3,150.9,67.9,150.9z"/>
	</g>
	<g>
		<path class="st0" d="M96,186c-1.8,0-3.6-0.6-5.1-1.8c-3.4-2.8-3.9-7.9-1.1-11.3l26.6-32.6c2.8-3.4,7.9-3.9,11.3-1.1
			c3.4,2.8,3.9,7.9,1.1,11.3l-26.6,32.6C100.6,185,98.3,186,96,186z"/>
	</g>
	<g>
		<path class="st0" d="M96,186c-2.3,0-4.6-1-6.2-2.9l-26.6-32.6c-2.8-3.4-2.3-8.5,1.1-11.3c3.4-2.8,8.5-2.3,11.3,1.1l26.6,32.6
			c2.8,3.4,2.3,8.5-1.1,11.3C99.6,185.4,97.8,186,96,186z"/>
	</g>
</g>
<g id="Icon_5_">
	<g>
		<path class="st1" d="M127,112.9c-0.9,0-1.8-0.4-2.6-1.1l-54-53.7c-1.4-1.4-1.4-3.7,0-5.1c1.4-1.4,3.7-1.4,5.1,0l54,53.7
			c1.4,1.4,1.4,3.7,0,5.1C128.9,112.5,127.9,112.9,127,112.9z"/>
	</g>
	<g>
		<path class="st1" d="M73,112.9c-0.9,0-1.9-0.4-2.6-1.1c-1.4-1.4-1.4-3.7,0-5.1l54-53.7c1.4-1.4,3.7-1.4,5.1,0
			c1.4,1.4,1.4,3.7,0,5.1l-54,53.7C74.8,112.6,73.9,112.9,73,112.9z"/>
	</g>
</g>
</svg>
