<?xml version="1.0" encoding="utf-8"?>
<!-- Generator: Adobe Illustrator 22.0.0, SVG Export Plug-In . SVG Version: 6.00 Build 0)  -->
<svg version="1.1" id="Layer_1" xmlns="http://www.w3.org/2000/svg" xmlns:xlink="http://www.w3.org/1999/xlink" x="0px" y="0px"
	 viewBox="0 0 1000 200" style="enable-background:new 0 0 1000 200;" xml:space="preserve">
<style type="text/css">
	.st0{fill:#FE5257;}
	.st1{fill:#222222;}
</style>
<g>
	<path class="st0" d="M158.6,97.1v41.3c0,2.1-1.6,3.6-4,3.6h-22.2c-2.1,0-3.8-1.5-3.8-3.6V99.5c0-10.4-6.4-17.5-16.5-17.5
		c-9.9,0-16.8,6.7-16.8,16.8v39.6c0,2.1-1.7,3.6-3.8,3.6H69.3c-2.1,0-4-1.5-4-3.6V99.5c0-10.4-6.4-17.5-16.5-17.5
		C38.8,82,32,89.1,32,99.5v38.9c0,2.1-1.7,3.6-3.8,3.6H5.8C3.6,142,2,140.3,2,138V61.1c0-2.2,1.7-3.9,4-3.9h21.9
		c2.1,0,4.2,1.5,4.2,3.6v3.1c4.9-4.8,13.5-9.2,25.1-9.2c12.3,0,23.8,5.1,29.1,14.2c5.5-6.5,15.1-14.2,32.6-14.2
		C146.8,54.6,158.6,74.2,158.6,97.1z"/>
	<path class="st0" d="M260.9,99.9c0,24.8-21.2,44.7-47.5,44.7s-47.5-19.9-47.5-44.7c0-25,21.2-45.2,47.5-45.2S260.9,74.9,260.9,99.9
		z M230.7,99.7c0-9.6-7.6-17.5-17.3-17.5S196,90.1,196,99.7s7.6,17.3,17.3,17.3S230.7,109.3,230.7,99.7z"/>
	<path class="st0" d="M299.2,151.6c0,25-16.5,34.4-32.9,34.4c-8.8,0-21.3-2.7-27.4-9.4c-1-1-1.7-2.4-1.7-3.6c0-1,0.5-2.4,1.4-3.6
		l9.5-13.2c1.2-1.7,3.1-1.9,3.5-1.9c1.9,0,2.8,0.5,4.5,1.7c2.8,1.9,4.9,2.1,6.4,2.1c1.6,0,6.8-0.2,6.8-7.9V61.3c0-2.2,1.7-4.1,4-4.1
		h21.9c2.3,0,4.2,1.9,4.2,4.1V151.6z M284.3,14.6c10.2,0,18.6,8.2,18.6,18.3s-8.3,18.3-18.6,18.3s-18.6-8.2-18.6-18.3
		S274.1,14.6,284.3,14.6z"/>
	<path class="st0" d="M325.6,14.6c10.2,0,18.6,8.2,18.6,18.3s-8.3,18.3-18.6,18.3c-10.2,0-18.6-8.2-18.6-18.3S315.3,14.6,325.6,14.6
		z M336.5,142h-21.9c-2.3,0-4.2-1.9-4.2-4.1V61.1c0-2.2,1.9-3.9,4.2-3.9h21.9c2.3,0,4,1.7,4,3.9v76.7
		C340.5,140.1,338.8,142,336.5,142z"/>
	<path class="st0" d="M362,82.6h-10.6c-2.3,0-4-1.9-4-4.1V61.1c0-2.2,1.7-3.9,4-3.9H362V36.3c0-2.2,1.9-3.9,4.2-3.9H388
		c2.3,0,4,1.7,4,3.9v20.9h24.1c2.3,0,4.2,1.7,4.2,3.9v17.3c0,2.2-1.9,4.1-4.2,4.1H392v25.3c0,7.7,5.2,7.9,6.8,7.9
		c1.6,0,3.6-0.2,6.4-2.1c1.7-1.2,2.8-1.7,4.2-1.7c0.9,0,2.6,0.2,3.8,1.9l9.5,13.2c0.9,1.2,1.4,2.6,1.4,3.6c0,1.2-0.7,2.6-1.7,3.6
		c-6.2,6.9-18.7,9.4-27.9,9.4c-15.8,0-32.4-7.7-32.4-32.7V82.6z"/>
	<path class="st0" d="M519.8,99.9c0,24.8-21.2,44.7-47.5,44.7s-47.5-19.9-47.5-44.7c0-25,21.2-45.2,47.5-45.2S519.8,74.9,519.8,99.9
		z M489.6,99.7c0-9.6-7.6-17.5-17.3-17.5c-9.7,0-17.3,7.9-17.3,17.5s7.6,17.3,17.3,17.3C482,117,489.6,109.3,489.6,99.7z"/>
	<path class="st1" d="M557.6,63c4.5-5.1,13-8.4,22.9-8.4c22.4,0,42.1,16.8,42.1,44.7c0,27.9-19.8,45.2-42.3,45.2
		c-7.8,0-18-2.1-22.7-7.9v1.4c0,2.2-1.7,3.9-4,3.9h-21.7c-2.3,0-4-1.7-4-3.9V26c0-2.2,1.7-3.9,4-3.9h21.7c2.1,0,4,1.7,4,3.9V63z
		 M575.1,117.2c9.7,0,17.3-7.9,17.3-17.5s-7.6-17.5-17.3-17.5s-17.3,7.9-17.3,17.5S565.4,117.2,575.1,117.2z"/>
	<path class="st1" d="M723,99.9c0,24.8-21.2,44.7-47.5,44.7S628,124.7,628,99.9c0-25,21.2-45.2,47.5-45.2S723,74.9,723,99.9z
		 M692.9,99.7c0-9.6-7.6-17.5-17.3-17.5s-17.3,7.9-17.3,17.5s7.6,17.3,17.3,17.3S692.9,109.3,692.9,99.7z"/>
	<path class="st1" d="M823.3,99.9c0,24.8-21.2,44.7-47.5,44.7s-47.5-19.9-47.5-44.7c0-25,21.2-45.2,47.5-45.2S823.3,74.9,823.3,99.9
		z M793.1,99.7c0-9.6-7.6-17.5-17.3-17.5c-9.7,0-17.3,7.9-17.3,17.5S766,117,775.8,117C785.5,117,793.1,109.3,793.1,99.7z"/>
	<path class="st1" d="M885.7,60c1.6-2.4,3.8-2.7,6.1-2.7h21.2c2.6,0,3.6,1.4,3.6,3.1c0,1.2-0.5,2.4-1.6,3.8l-23.9,34.3l26,37.2
		c1,1.4,1.6,2.2,1.6,3.4c0,1.7-1,3.1-3.6,3.1h-24.1c-2.3,0-4.3,0-5.9-2.4l-23.6-36.8V138c0,2.2-1.7,3.9-4,3.9h-21.9
		c-2.3,0-4.2-1.7-4.2-3.9V26c0-2.2,1.9-3.9,4.2-3.9h21.9c2.3,0,4,1.7,4,3.9v72.1L885.7,60z"/>
	<path class="st1" d="M958.5,54.6c17.7,0,29.7,5,34.3,8.6c1.6,1.2,2.3,2.4,2.3,3.9c0,1.2-0.5,2.6-1.2,3.9l-6.4,11.8
		c-0.9,1.5-2.1,2.6-3.8,2.6c-2.6,0-3.6-0.9-5.5-1.7c-5.9-2.7-12.3-5.1-19.9-5.1c-5.2,0-9.7,1.5-9.7,4.6c0,2.2,1.9,3.6,5.2,4.1
		c10.2,1.5,22.5,1.2,32.1,6.5c7.1,3.9,12.1,10.4,12.1,21.8c0,17.1-15.8,29.1-39.9,29.1c-16.8,0-29.7-3.9-37.5-9.9
		c-2.4-1.9-3.1-2.9-3.1-5c0-1.9,0.5-2.7,2.3-5l7.8-11.3c0.9-1.2,2.1-1.4,2.9-1.4c2.8,0,4.2,2.1,8.2,4.3c5.4,3.1,12,5.1,18.9,5.1
		c5.5,0,10.1-1.4,10.1-4.8c0-2.4-2.1-3.3-5.7-3.9c-6.4-1.2-17-1.4-25.8-4.6c-8.7-3.3-16.6-10.1-16.6-24
		C919.3,65.1,936.3,54.6,958.5,54.6z"/>
</g>
</svg>
