<?xml version="1.0" encoding="utf-8"?>
<!-- Generator: Adobe Illustrator 22.0.0, SVG Export Plug-In . SVG Version: 6.00 Build 0)  -->
<svg version="1.1" id="Layer_1" xmlns="http://www.w3.org/2000/svg" xmlns:xlink="http://www.w3.org/1999/xlink" x="0px" y="0px"
	 viewBox="0 0 600 200" style="enable-background:new 0 0 600 200;" xml:space="preserve">
<style type="text/css">
	.st0{fill:#FE5257;}
	.st1{fill:#FFFFFF;}
	.st2{font-family:'Calibre-Medium';}
	.st3{font-size:97.9193px;}
</style>
<path class="st0" d="M555.4,191H44.6c-4.5,0-8.1-3.6-8.1-8.1V17.1c0-4.5,3.6-8.1,8.1-8.1h510.8c4.5,0,8.1,3.6,8.1,8.1v165.8
	C563.5,187.4,559.9,191,555.4,191z"/>
<g>
	<g>
		<g>
			<g>
				<path class="st1" d="M208,47c-1-1-2.6-1.3-3.9-0.7L99.1,92c-1.3,0.5-2.1,1.8-2.1,3.2c0,1.4,0.7,2.6,2,3.2l29.5,14.3l6.2,22.3
					c0,0,0,0.1,0.1,0.1c0.1,0.3,0.3,0.6,0.5,0.8c0,0,0,0,0,0c0,0,0,0,0.1,0c0.3,0.2,0.7,0.3,1,0.3c0,0,0,0,0.1,0
					c0.2,0,0.4-0.1,0.6-0.2c0,0,0.1-0.1,0.1-0.1c0.2-0.1,0.3-0.2,0.4-0.3c0,0,0.1,0,0.1-0.1l5.6-6.9l13.3,27.3c0.6,1.2,1.8,2,3.2,2
					c0,0,0.1,0,0.1,0c1.4,0,2.6-0.9,3.2-2.1l45.7-105C209.3,49.6,209,48.1,208,47z M188.1,60.9l-57.5,45.2l-21.8-10.6L188.1,60.9z
					 M183.5,69L139,113.5c-0.2,0.2-0.4,0.6-0.5,0.9L136,127l-4.7-17L183.5,69z M141.9,115.6L141.9,115.6L141.9,115.6L141.9,115.6z
					 M139.4,127.9l1-4.9l1.1,2.3L139.4,127.9z M159.6,146.1l-15.8-32.4l53-53L159.6,146.1z"/>
			</g>
		</g>
	</g>
</g>
<text transform="matrix(1 1.278916e-03 -1.278916e-03 1 224.0568 134.6691)" class="st1 st2 st3">Publish</text>
</svg>
