<?xml version="1.0" encoding="utf-8"?>
<!-- Generator: Adobe Illustrator 22.0.0, SVG Export Plug-In . SVG Version: 6.00 Build 0)  -->
<svg version="1.1" id="Layer_1" xmlns="http://www.w3.org/2000/svg" xmlns:xlink="http://www.w3.org/1999/xlink" x="0px" y="0px"
	 viewBox="0 0 240 336" style="enable-background:new 0 0 240 336;" xml:space="preserve">
<style type="text/css">
	.st0{fill:#ECEFF1;}
	.st1{fill:#040D14;}
	.st2{font-family:'Calibre-Medium';}
	.st3{font-size:17.1349px;}
</style>
<rect class="st0" width="240" height="336"/>
<g>
	<g>
		<g>
			<path class="st1" d="M120,149.3c-2.5,0-4.5,2.1-4.5,4.5s2.1,4.5,4.5,4.5s4.5-2.1,4.5-4.5C124.5,151.2,122.4,149.3,120,149.3z
				 M132.1,144.7h-3.7c-0.5,0-1-0.4-1.2-0.9l-1-2.8c-0.1-0.5-0.7-0.9-1.2-0.9h-10.3c-0.5,0-1,0.4-1.2,0.9l-1,2.8
				c-0.1,0.5-0.7,0.9-1.2,0.9h-3.7c-1.7,0-3.1,1.3-3.1,3.1v13.6c0,1.7,1.3,3.1,3.1,3.1h24.1c1.7,0,3.1-1.3,3.1-3.1v-13.7
				C135.1,146.1,133.7,144.7,132.1,144.7z M120,161.3c-4.2,0-7.6-3.4-7.6-7.6s3.4-7.6,7.6-7.6s7.6,3.4,7.6,7.6
				C127.6,158,124.2,161.3,120,161.3z M131,149.9c-0.6,0-1.1-0.5-1.1-1.1s0.5-1.1,1.1-1.1s1.1,0.5,1.1,1.1S131.6,149.9,131,149.9z"
				/>
		</g>
	</g>
</g>
<text transform="matrix(1 0 0 1 61.0459 184.6416)" class="st2 st3">Select Thumbnail</text>
</svg>
