<?xml version="1.0" encoding="utf-8"?>
<!-- Generator: Adobe Illustrator 22.0.0, SVG Export Plug-In . SVG Version: 6.00 Build 0)  -->
<svg version="1.1" id="Layer_1" xmlns="http://www.w3.org/2000/svg" xmlns:xlink="http://www.w3.org/1999/xlink" x="0px" y="0px"
	 viewBox="0 0 240 336" style="enable-background:new 0 0 240 336;" xml:space="preserve">
<style type="text/css">
	.st0{fill:#ECEFF1;}
	.st1{fill:#040D14;}
	.st2{enable-background:new    ;}
</style>
<rect class="st0" width="240" height="336"/>
<g>
	<g>
		<g>
			<path class="st1" d="M120,149.3c-2.5,0-4.5,2.1-4.5,4.5s2.1,4.5,4.5,4.5s4.5-2.1,4.5-4.5C124.5,151.2,122.4,149.3,120,149.3z
				 M132.1,144.7h-3.7c-0.5,0-1-0.4-1.2-0.9l-1-2.8c-0.1-0.5-0.7-0.9-1.2-0.9h-10.3c-0.5,0-1,0.4-1.2,0.9l-1,2.8
				c-0.1,0.5-0.7,0.9-1.2,0.9h-3.7c-1.7,0-3.1,1.3-3.1,3.1v13.6c0,1.7,1.3,3.1,3.1,3.1h24.1c1.7,0,3.1-1.3,3.1-3.1v-13.7
				C135.1,146.1,133.7,144.7,132.1,144.7z M120,161.3c-4.2,0-7.6-3.4-7.6-7.6s3.4-7.6,7.6-7.6s7.6,3.4,7.6,7.6
				C127.6,158,124.2,161.3,120,161.3z M131,149.9c-0.6,0-1.1-0.5-1.1-1.1s0.5-1.1,1.1-1.1s1.1,0.5,1.1,1.1S131.6,149.9,131,149.9z"
				/>
		</g>
	</g>
</g>
<g class="st2">
	<path d="M63.2,181.7c0.3,1.1,1.2,1.6,2.4,1.6c1.2,0,2-0.6,2-1.6c0-0.7-0.4-1.2-1.5-1.4l-1.8-0.4c-1.5-0.3-2.6-1.1-2.6-2.8
		c0-1.8,1.5-3.1,3.6-3.1c2.3,0,3.6,1.2,4,2.9h-1.8c-0.3-0.8-0.9-1.4-2.2-1.4c-1.1,0-1.9,0.6-1.9,1.5c0,0.7,0.4,1.1,1.4,1.4l1.8,0.4
		c1.6,0.4,2.7,1.3,2.7,2.9c0,2-1.6,3.2-3.8,3.2c-2.2,0-3.8-1.1-4.2-3.1H63.2z"/>
	<path d="M77.4,182.3c-0.3,1.5-1.4,2.5-3.2,2.5c-2.1,0-3.6-1.6-3.6-4c0-2.3,1.5-4,3.6-4c2.1,0,3.3,1.5,3.3,3.8v0.6h-5.2
		c0.1,1.3,0.8,2.1,1.9,2.1c0.8,0,1.4-0.4,1.6-1.1H77.4z M72.3,180h3.4c0-0.9-0.5-1.7-1.6-1.7C73.2,178.3,72.5,178.9,72.3,180z"/>
	<path d="M80.7,184.6H79v-11.1h1.7V184.6z"/>
	<path d="M89.1,182.3c-0.3,1.5-1.4,2.5-3.2,2.5c-2.1,0-3.6-1.6-3.6-4c0-2.3,1.5-4,3.6-4c2.1,0,3.3,1.5,3.3,3.8v0.6H84
		c0.1,1.3,0.8,2.1,1.9,2.1c0.8,0,1.4-0.4,1.6-1.1H89.1z M84,180h3.4c0-0.9-0.5-1.7-1.6-1.7C84.9,178.3,84.2,178.9,84,180z"/>
	<path d="M93.8,176.9c1.8,0,3,1,3.2,2.6h-1.7c-0.1-0.7-0.7-1.1-1.5-1.1c-1.1,0-1.9,1-1.9,2.5s0.7,2.5,1.9,2.5c0.8,0,1.3-0.4,1.5-1.1
		H97c-0.2,1.5-1.4,2.6-3.2,2.6c-2.1,0-3.5-1.6-3.5-4C90.3,178.5,91.8,176.9,93.8,176.9z"/>
	<path d="M99,178.5h-1.2V177H99v-2h1.7v2h1.7v1.4h-1.7v3.9c0,0.6,0.3,0.9,0.9,0.9c0.3,0,0.7-0.1,1-0.3v1.6c-0.3,0.2-0.8,0.3-1.3,0.3
		c-1.4,0-2.3-0.7-2.3-2.2V178.5z"/>
	<path d="M107.6,174.1h8.8v1.6h-3.5v8.9h-1.8v-8.9h-3.5V174.1z"/>
	<path d="M117.9,173.5h1.7v4.2c0.4-0.5,1.2-0.9,2.1-0.9c1.7,0,2.7,1.1,2.7,2.8v5h-1.7V180c0-0.9-0.5-1.6-1.4-1.6
		c-0.7,0-1.4,0.5-1.6,1.2v5h-1.7V173.5z"/>
	<path d="M132.8,184.6H131v-0.7c-0.4,0.5-1.1,0.9-2,0.9c-1.7,0-2.7-1.1-2.7-2.8v-5h1.7v4.7c0,0.9,0.4,1.6,1.4,1.6
		c0.7,0,1.4-0.5,1.6-1.2v-5h1.7V184.6z"/>
	<path d="M142.8,176.9c1.6,0,2.5,1.1,2.5,2.8v5h-1.7V180c0-0.9-0.4-1.6-1.3-1.6c-0.6,0-1.2,0.4-1.4,1.1v5.1h-1.7V180
		c0-0.9-0.4-1.6-1.3-1.6c-0.6,0-1.2,0.4-1.4,1.1v5.1h-1.7V177h1.7v0.6c0.4-0.5,1-0.8,1.9-0.8c0.9,0,1.6,0.4,2,1
		C141,177.3,141.7,176.9,142.8,176.9z"/>
	<path d="M149,184.6h-1.7v-11.1h1.7v4.2c0.3-0.4,1.1-0.8,1.9-0.8c2.2,0,3.5,1.8,3.5,4c0,2.2-1.3,4-3.5,4c-0.8,0-1.6-0.4-1.9-0.8
		V184.6z M149,182.3c0.3,0.6,0.9,1,1.6,1c1.3,0,2.1-1,2.1-2.5c0-1.4-0.8-2.5-2.1-2.5c-0.7,0-1.4,0.4-1.6,1V182.3z"/>
	<path d="M156,177h1.7v0.7c0.4-0.5,1.2-0.9,2.1-0.9c1.7,0,2.7,1.1,2.7,2.8v5h-1.7V180c0-0.9-0.5-1.6-1.4-1.6c-0.7,0-1.4,0.5-1.6,1.2
		v5H156V177z"/>
	<path d="M168.7,184.6v-0.4c-0.3,0.3-1,0.6-1.9,0.6c-1.6,0-2.8-0.9-2.8-2.5c0-1.4,1.3-2.5,3-2.5c0.7,0,1.5,0.2,1.8,0.5v-0.6
		c0-0.8-0.5-1.4-1.5-1.4c-0.7,0-1.1,0.3-1.3,0.8h-1.6c0.2-1.3,1.4-2.3,3-2.3c1.9,0,3,1.1,3,2.8v5H168.7z M168.7,182
		c-0.2-0.5-0.9-0.8-1.6-0.8c-0.8,0-1.6,0.3-1.6,1.1c0,0.8,0.8,1.1,1.6,1.1c0.7,0,1.4-0.3,1.6-0.8V182z"/>
	<path d="M173.2,175.8c-0.6,0-1.1-0.5-1.1-1c0-0.6,0.5-1,1.1-1s1.1,0.5,1.1,1C174.3,175.3,173.8,175.8,173.2,175.8z M174.1,184.6
		h-1.7V177h1.7V184.6z"/>
	<path d="M177.9,184.6h-1.7v-11.1h1.7V184.6z"/>
</g>
</svg>
