<?xml version="1.0" encoding="utf-8"?>
<!-- Generator: Adobe Illustrator 22.0.0, SVG Export Plug-In . SVG Version: 6.00 Build 0)  -->
<svg version="1.1" id="Layer_1" xmlns="http://www.w3.org/2000/svg" xmlns:xlink="http://www.w3.org/1999/xlink" x="0px" y="0px"
	 viewBox="0 0 200 200" style="enable-background:new 0 0 200 200;" xml:space="preserve">
<style type="text/css">
	.st0{fill:#EFEFEF;}
	.st1{display:none;}
	.st2{display:inline;}
	.st3{fill:none;stroke:#EFEFEF;stroke-width:5;stroke-linejoin:round;}
	.st4{fill:none;stroke:#EFEFEF;stroke-width:5;stroke-linejoin:round;stroke-dasharray:27.2346,13.6173;}
	.st5{enable-background:new    ;}
	.st6{fill:#040D14;}
</style>
<rect class="st0" width="200" height="200"/>
<g class="st1">
	<g class="st2">
		<polyline class="st3" points="183.1,168.1 183.1,183.1 168.1,183.1 		"/>
		<line class="st4" x1="154.5" y1="183.1" x2="38.7" y2="183.1"/>
		<polyline class="st3" points="31.9,183.1 16.9,183.1 16.9,168.1 		"/>
		<line class="st4" x1="16.9" y1="154.5" x2="16.9" y2="38.7"/>
		<polyline class="st3" points="16.9,31.9 16.9,16.9 31.9,16.9 		"/>
		<line class="st4" x1="45.5" y1="16.9" x2="161.3" y2="16.9"/>
		<polyline class="st3" points="168.1,16.9 183.1,16.9 183.1,31.9 		"/>
		<line class="st4" x1="183.1" y1="45.5" x2="183.1" y2="161.3"/>
	</g>
</g>
<g class="st5">
	<path class="st6" d="M70.3,107.5c0.2,0.8,0.9,1.1,1.7,1.1c0.9,0,1.5-0.4,1.5-1.1c0-0.5-0.3-0.8-1.1-1l-1.3-0.3
		c-1-0.2-1.9-0.8-1.9-2c0-1.3,1-2.2,2.6-2.2c1.6,0,2.6,0.8,2.9,2.1h-1.3c-0.2-0.6-0.7-1-1.6-1c-0.8,0-1.4,0.4-1.4,1
		c0,0.5,0.3,0.8,1,1l1.3,0.3c1.2,0.3,1.9,1,1.9,2.1c0,1.4-1.1,2.3-2.7,2.3c-1.6,0-2.7-0.8-3-2.2H70.3z"/>
	<path class="st6" d="M80.4,107.9c-0.2,1.1-1,1.8-2.3,1.8c-1.5,0-2.6-1.2-2.6-2.8c0-1.6,1.1-2.9,2.5-2.9c1.5,0,2.4,1.1,2.4,2.7v0.4
		h-3.7c0,1,0.6,1.5,1.4,1.5c0.6,0,1-0.3,1.2-0.8H80.4z M76.8,106.2h2.5c0-0.7-0.4-1.2-1.1-1.2C77.4,105,76.9,105.4,76.8,106.2z"/>
	<path class="st6" d="M82.8,109.6h-1.2v-8h1.2V109.6z"/>
	<path class="st6" d="M88.8,107.9c-0.2,1.1-1,1.8-2.3,1.8c-1.5,0-2.6-1.2-2.6-2.8c0-1.6,1.1-2.9,2.5-2.9c1.5,0,2.4,1.1,2.4,2.7v0.4
		h-3.7c0,1,0.6,1.5,1.4,1.5c0.6,0,1-0.3,1.2-0.8H88.8z M85.2,106.2h2.5c0-0.7-0.4-1.2-1.1-1.2C85.8,105,85.3,105.4,85.2,106.2z"/>
	<path class="st6" d="M92.2,104c1.3,0,2.1,0.7,2.3,1.8h-1.2c-0.1-0.5-0.5-0.8-1-0.8c-0.8,0-1.3,0.7-1.3,1.8s0.5,1.8,1.3,1.8
		c0.5,0,0.9-0.3,1-0.8h1.2c-0.2,1.1-1,1.8-2.3,1.8c-1.5,0-2.5-1.2-2.5-2.8C89.6,105.2,90.7,104,92.2,104z"/>
	<path class="st6" d="M95.9,105.1H95v-1h0.9v-1.5h1.2v1.5h1.2v1h-1.2v2.8c0,0.4,0.2,0.6,0.6,0.6c0.2,0,0.5-0.1,0.7-0.2v1.1
		c-0.2,0.1-0.5,0.2-0.9,0.2c-1,0-1.7-0.5-1.7-1.6V105.1z"/>
	<path class="st6" d="M103.8,106.8v2.8h-1.3V102h2.9c1.6,0,2.6,0.8,2.6,2.4c0,1.5-1,2.4-2.6,2.4H103.8z M105.4,103.1h-1.6v2.5h1.6
		c0.9,0,1.3-0.5,1.3-1.2C106.7,103.7,106.2,103.1,105.4,103.1z"/>
	<path class="st6" d="M109.1,101.6h1.2v3c0.3-0.3,0.8-0.6,1.5-0.6c1.2,0,1.9,0.8,1.9,2v3.5h-1.2v-3.3c0-0.7-0.3-1.1-1-1.1
		c-0.5,0-1,0.3-1.1,0.9v3.6h-1.2V101.6z"/>
	<path class="st6" d="M117.4,109.7c-1.5,0-2.6-1.2-2.6-2.8c0-1.7,1.1-2.8,2.6-2.8c1.5,0,2.6,1.2,2.6,2.8
		C119.9,108.5,118.9,109.7,117.4,109.7z M117.4,105.1c-0.9,0-1.4,0.8-1.4,1.8s0.5,1.8,1.4,1.8c0.9,0,1.4-0.8,1.4-1.8
		S118.2,105.1,117.4,105.1z"/>
	<path class="st6" d="M121.4,105.1h-0.9v-1h0.9v-1.5h1.2v1.5h1.2v1h-1.2v2.8c0,0.4,0.2,0.6,0.6,0.6c0.2,0,0.5-0.1,0.7-0.2v1.1
		c-0.2,0.1-0.5,0.2-0.9,0.2c-1,0-1.7-0.5-1.7-1.6V105.1z"/>
	<path class="st6" d="M127.3,109.7c-1.5,0-2.6-1.2-2.6-2.8c0-1.7,1.1-2.8,2.6-2.8c1.5,0,2.6,1.2,2.6,2.8
		C129.9,108.5,128.9,109.7,127.3,109.7z M127.3,105.1c-0.9,0-1.4,0.8-1.4,1.8s0.5,1.8,1.4,1.8c0.9,0,1.4-0.8,1.4-1.8
		S128.2,105.1,127.3,105.1z"/>
</g>
<g>
	<g>
		<g>
			<path class="st6" d="M100,83.9c-2,0-3.7,1.7-3.7,3.7c0,2,1.7,3.7,3.7,3.7c2,0,3.7-1.7,3.7-3.7C103.7,85.5,102,83.9,100,83.9z
				 M109.9,80.2h-3c-0.4,0-0.8-0.3-1-0.7l-0.8-2.3c-0.1-0.4-0.6-0.7-1-0.7h-8.4c-0.4,0-0.8,0.3-1,0.7l-0.8,2.3
				c-0.1,0.4-0.6,0.7-1,0.7h-3c-1.4,0-2.5,1.1-2.5,2.5v11.1c0,1.4,1.1,2.5,2.5,2.5h19.7c1.4,0,2.5-1.1,2.5-2.5V82.6
				C112.3,81.3,111.2,80.2,109.9,80.2z M100,93.7c-3.4,0-6.2-2.8-6.2-6.2c0-3.4,2.8-6.2,6.2-6.2c3.4,0,6.2,2.8,6.2,6.2
				C106.2,91,103.4,93.7,100,93.7z M109,84.4c-0.5,0-0.9-0.4-0.9-0.9c0-0.5,0.4-0.9,0.9-0.9c0.5,0,0.9,0.4,0.9,0.9
				C109.9,84,109.5,84.4,109,84.4z"/>
		</g>
	</g>
</g>
</svg>
