<?xml version="1.0" encoding="utf-8"?>
<!-- Generator: Adobe Illustrator 22.0.0, SVG Export Plug-In . SVG Version: 6.00 Build 0)  -->
<svg version="1.1" id="Layer_1" xmlns="http://www.w3.org/2000/svg" xmlns:xlink="http://www.w3.org/1999/xlink" x="0px" y="0px"
	 viewBox="0 0 200 200" style="enable-background:new 0 0 200 200;" xml:space="preserve">
<style type="text/css">
	.st0{fill:#3F3F4A;}
	.st1{fill:#FE5257;}
</style>
<g>
	<g>
		<g>
			<g>
				<g>
					<g>
						<path class="st0" d="M148.7,145.8c-3.2,0-5.7-2.6-5.7-5.7s2.6-5.7,5.7-5.7c17,0,30.8-13.8,30.8-30.8c0-17-13.8-30.8-30.8-30.8
							c-3.2,0-5.7-2.6-5.7-5.7c0-23.7-19.3-43-43-43s-43,19.3-43,43c0,3.2-2.6,5.7-5.7,5.7c-17,0-30.8,13.8-30.8,30.8
							c0,17,13.8,30.8,30.8,30.8c3.2,0,5.7,2.6,5.7,5.7s-2.6,5.7-5.7,5.7c-23.3,0-42.3-19-42.3-42.3c0-21.5,16.1-39.3,36.8-42
							c2.7-27.5,26-49.1,54.2-49.1s51.5,21.6,54.2,49.1c20.8,2.7,36.8,20.5,36.8,42C191,126.8,172,145.8,148.7,145.8z"/>
					</g>
				</g>
			</g>
		</g>
		<g>
			<g>
				<g>
					<g>
						<path class="st0" d="M65.6,69.8c-1.6,0-2.9-1.3-2.9-2.9c0-20.5,16.7-37.2,37.2-37.2c1.6,0,2.9,1.3,2.9,2.9s-1.3,2.9-2.9,2.9
							c-17.3,0-31.5,14.1-31.5,31.5C68.5,68.5,67.2,69.8,65.6,69.8z"/>
					</g>
				</g>
			</g>
		</g>
	</g>
	<g>
		<g>
			<g>
				<g>
					<path class="st1" d="M114.3,157.5H85.6c-3.2,0-5.7-2.6-5.7-5.7v-23H63c-2.4,0-4.5-1.4-5.3-3.6c-0.9-2.2-0.3-4.7,1.4-6.3
						L96,84.1c2.2-2.1,5.6-2.1,7.9,0l36.9,34.7c1.7,1.6,2.3,4.1,1.4,6.3c-0.9,2.2-3,3.6-5.3,3.6H120v23
						C120,155,117.4,157.5,114.3,157.5z M91.3,146.1h17.2v-23c0-3.2,2.6-5.7,5.7-5.7h8.1L99.9,96.2l-22.4,21.1h8.1
						c3.2,0,5.7,2.6,5.7,5.7V146.1z"/>
				</g>
			</g>
		</g>
	</g>
</g>
<g>
	<path class="st0" d="M28.1,178.1c0.5,1.7,2,2.5,3.8,2.5c2,0,3.3-0.9,3.3-2.5c0-1.2-0.7-1.9-2.4-2.3l-2.8-0.7
		c-2.3-0.5-4.2-1.8-4.2-4.5c0-2.8,2.3-5,5.7-5c3.6,0,5.8,1.9,6.4,4.6h-2.8c-0.4-1.3-1.5-2.2-3.5-2.2c-1.8,0-3,0.9-3,2.3
		c0,1.1,0.7,1.8,2.2,2.2l2.9,0.7c2.6,0.6,4.3,2.1,4.3,4.6c0,3.1-2.5,5.1-6,5.1c-3.6,0-6.1-1.8-6.7-4.9H28.1z"/>
	<path class="st0" d="M50.7,179c-0.4,2.4-2.2,4-5.1,4c-3.4,0-5.7-2.6-5.7-6.3c0-3.6,2.4-6.4,5.7-6.4c3.4,0,5.3,2.4,5.3,6v1h-8.3
		c0.1,2.1,1.3,3.4,3.1,3.4c1.3,0,2.3-0.6,2.6-1.7H50.7z M42.6,175.3h5.5c0-1.5-0.9-2.7-2.5-2.7C44,172.6,42.9,173.6,42.6,175.3z"/>
	<path class="st0" d="M56,182.8h-2.7V165H56V182.8z"/>
	<path class="st0" d="M69.4,179c-0.4,2.4-2.2,4-5.1,4c-3.4,0-5.7-2.6-5.7-6.3c0-3.6,2.4-6.4,5.7-6.4c3.4,0,5.3,2.4,5.3,6v1h-8.3
		c0.1,2.1,1.3,3.4,3.1,3.4c1.3,0,2.3-0.6,2.6-1.7H69.4z M61.3,175.3h5.5c0-1.5-0.9-2.7-2.5-2.7C62.8,172.6,61.6,173.6,61.3,175.3z"
		/>
	<path class="st0" d="M76.9,170.4c2.9,0,4.7,1.6,5.1,4.1h-2.7c-0.2-1.1-1.1-1.7-2.3-1.7c-1.8,0-3,1.7-3,4c0,2.3,1.1,4,3,4
		c1.2,0,2.1-0.6,2.3-1.7H82c-0.4,2.4-2.2,4.1-5.1,4.1c-3.3,0-5.7-2.6-5.7-6.3C71.3,172.9,73.6,170.4,76.9,170.4z"/>
	<path class="st0" d="M85.2,172.9h-1.9v-2.3h1.9v-3.3h2.7v3.3h2.7v2.3h-2.7v6.3c0,1,0.5,1.4,1.4,1.4c0.5,0,1.2-0.2,1.6-0.5v2.5
		c-0.5,0.3-1.2,0.4-2,0.4c-2.2,0-3.7-1.1-3.7-3.6V172.9z"/>
	<path class="st0" d="M102.7,176.5v6.3h-2.8V166h6.5c3.5,0,5.7,1.8,5.7,5.3c0,3.4-2.3,5.2-5.7,5.2H102.7z M106.3,168.4h-3.6v5.6h3.6
		c2,0,3-1.2,3-2.8C109.3,169.6,108.3,168.4,106.3,168.4z"/>
	<path class="st0" d="M116,168.6c-0.9,0-1.7-0.7-1.7-1.7c0-0.9,0.8-1.7,1.7-1.7s1.7,0.7,1.7,1.7C117.7,167.9,116.9,168.6,116,168.6z
		 M117.4,182.8h-2.7v-12.1h2.7V182.8z"/>
	<path class="st0" d="M125.5,170.4c2.9,0,4.7,1.6,5.1,4.1h-2.7c-0.2-1.1-1.1-1.7-2.3-1.7c-1.8,0-3,1.7-3,4c0,2.3,1.1,4,3,4
		c1.2,0,2.1-0.6,2.3-1.7h2.7c-0.4,2.4-2.2,4.1-5.1,4.1c-3.3,0-5.7-2.6-5.7-6.3C119.9,172.9,122.3,170.4,125.5,170.4z"/>
	<path class="st0" d="M133.8,172.9h-1.9v-2.3h1.9v-3.3h2.7v3.3h2.7v2.3h-2.7v6.3c0,1,0.5,1.4,1.4,1.4c0.5,0,1.2-0.2,1.6-0.5v2.5
		c-0.5,0.3-1.2,0.4-2,0.4c-2.2,0-3.7-1.1-3.7-3.6V172.9z"/>
	<path class="st0" d="M152.4,182.8h-2.7v-1.1c-0.7,0.8-1.8,1.4-3.3,1.4c-2.8,0-4.3-1.8-4.3-4.5v-7.9h2.7v7.4c0,1.5,0.7,2.5,2.3,2.5
		c1.2,0,2.2-0.7,2.5-1.9v-8h2.7V182.8z"/>
	<path class="st0" d="M162.6,173.4c-0.4-0.3-1-0.4-1.6-0.4c-1.1,0-2.2,0.6-2.4,1.9v7.8h-2.7v-12.1h2.7v1.3c0.5-0.9,1.5-1.5,2.7-1.5
		c0.6,0,1.1,0.1,1.3,0.2V173.4z"/>
	<path class="st0" d="M174.7,179c-0.4,2.4-2.2,4-5.1,4c-3.4,0-5.7-2.6-5.7-6.3c0-3.6,2.4-6.4,5.7-6.4c3.4,0,5.3,2.4,5.3,6v1h-8.3
		c0.1,2.1,1.3,3.4,3.1,3.4c1.3,0,2.3-0.6,2.6-1.7H174.7z M166.6,175.3h5.5c0-1.5-0.9-2.7-2.5-2.7C168,172.6,166.9,173.6,166.6,175.3
		z"/>
</g>
</svg>
